<svg width="34" height="33" viewBox="0 0 34 33" fill="none" xmlns="http://www.w3.org/2000/svg">
<path fill-rule="evenodd" clip-rule="evenodd" d="M23.2763 25.306H15.3345C15.0698 25.306 14.8552 25.0802 14.8552 24.8016C14.8552 24.5231 15.0698 24.2972 15.3345 24.2972H20.0102V11.366C20.0076 9.25415 18.4106 7.54282 16.4397 7.54004H4.32924C2.35469 7.5413 0.754974 9.25756 0.75615 11.3734C0.757329 13.4891 2.35899 15.2033 4.33348 15.2021C5.33014 15.2014 6.28135 14.755 6.95759 13.9705V28.709C6.95759 30.8229 8.55542 32.5373 10.5281 32.54H21.7671C23.7404 32.4633 25.2819 30.6869 25.2103 28.5725C25.162 27.1474 24.3903 25.9225 23.2763 25.306ZM4.32924 14.1875C2.87501 14.1903 1.694 12.9293 1.6914 11.3711C1.68881 9.81278 2.86559 8.54726 4.31982 8.54448C5.77404 8.5417 6.95506 9.80268 6.95765 11.361V11.366C6.95765 12.9223 5.78158 14.1847 4.32924 14.1875ZM10.5329 31.5053C9.07863 31.5081 7.89761 30.2471 7.89502 28.6888C7.89243 27.1306 9.06921 25.865 10.5234 25.8623C11.9777 25.8595 13.1587 27.1205 13.1613 28.6787V28.6838C13.1613 30.2401 11.9852 31.5025 10.5329 31.5053ZM15.4788 10.8613H11.0369C10.7767 10.8613 10.5658 11.0873 10.5658 11.366C10.5658 11.6448 10.7767 11.8708 11.0369 11.8708H15.4788C15.7389 11.8708 15.9498 11.6448 15.9498 11.366C15.9498 11.0873 15.7389 10.8613 15.4788 10.8613ZM9.08205 13.4657H17.7021C17.9622 13.4657 18.1731 13.6917 18.1731 13.9705C18.1731 14.2492 17.9622 14.4752 17.7021 14.4752H9.08205C8.82192 14.4752 8.61101 14.2492 8.61101 13.9705C8.61101 13.6917 8.82192 13.4657 9.08205 13.4657ZM17.7021 16.2015H9.08205C8.82192 16.2015 8.61101 16.4275 8.61101 16.7062C8.61101 16.9849 8.82192 17.2109 9.08205 17.2109H17.7021C17.9622 17.2109 18.1731 16.9849 18.1731 16.7062C18.1731 16.4275 17.9622 16.2015 17.7021 16.2015ZM9.08205 18.9574H17.7021C17.9622 18.9574 18.1731 19.1834 18.1731 19.4621C18.1731 19.7409 17.9622 19.9669 17.7021 19.9669H9.08205C8.82192 19.9669 8.61101 19.7409 8.61101 19.4621C8.61101 19.1834 8.82192 18.9574 9.08205 18.9574ZM17.7021 21.7133H9.08204C8.82191 21.7133 8.611 21.9393 8.611 22.218C8.611 22.4968 8.82191 22.7228 9.08204 22.7228H17.7021C17.9622 22.7228 18.1731 22.4968 18.1731 22.218C18.1731 21.9393 17.9622 21.7133 17.7021 21.7133Z" fill="#FFF5D6"/>
<path d="M31.5649 13.9273C34.2923 10.583 34.053 5.42547 31.0306 2.40763C28.0082 -0.610203 23.347 -0.345557 20.6197 2.99873C17.8924 6.34302 18.1316 11.5005 21.1541 14.5184C24.1765 17.5362 28.8376 17.2716 31.5649 13.9273Z" fill="#FA5926"/>
<path d="M23.4241 6.08018C23.4721 5.33618 23.7561 4.75618 24.2761 4.34018C24.8041 3.92418 25.4761 3.71618 26.2921 3.71618C26.8521 3.71618 27.3361 3.81618 27.7441 4.01618C28.1521 4.21618 28.4601 4.48818 28.6681 4.83218C28.8761 5.17618 28.9801 5.56418 28.9801 5.99618C28.9801 6.49218 28.8481 6.91618 28.5841 7.26818C28.3201 7.62018 28.0041 7.85618 27.6361 7.97618L27.6361 8.02418C28.1081 8.16818 28.4761 8.43218 28.7401 8.81618C29.0041 9.19218 29.1361 9.67618 29.1361 10.2682C29.1361 10.7402 29.0281 11.1602 28.8121 11.5282C28.5961 11.8962 28.2761 12.1882 27.8521 12.4042C27.4281 12.6122 26.9201 12.7162 26.3281 12.7162C25.4641 12.7162 24.7521 12.4962 24.1921 12.0562C23.6401 11.6082 23.3441 10.9682 23.3041 10.1362L24.6241 10.1362C24.6561 10.5602 24.8201 10.9082 25.1161 11.1802C25.4121 11.4442 25.8121 11.5762 26.3161 11.5762C26.8041 11.5762 27.1801 11.4442 27.4441 11.1802C27.7081 10.9082 27.8401 10.5602 27.8401 10.1362C27.8401 9.57618 27.6601 9.18018 27.3001 8.94818C26.9481 8.70818 26.4041 8.58818 25.6681 8.58818L25.3561 8.58818L25.3561 7.46018L25.6801 7.46018C26.3281 7.45218 26.8201 7.34418 27.1561 7.13618C27.5001 6.92818 27.6721 6.60018 27.6721 6.15218C27.6721 5.76818 27.5481 5.46418 27.3001 5.24018C27.0521 5.00818 26.7001 4.89218 26.2441 4.89218C25.7961 4.89218 25.4481 5.00818 25.2001 5.24018C24.9521 5.46418 24.8041 5.74418 24.7561 6.08018L23.4241 6.08018Z" fill="#FFFAF3"/>
</svg>
