<svg width="35" height="38" viewBox="0 0 35 38" fill="none" xmlns="http://www.w3.org/2000/svg">
<path fill-rule="evenodd" clip-rule="evenodd" d="M20.4306 14.0463C22.5292 12.8063 21.4947 8.5316 21.2582 7.68319C28.3345 12.2426 27.7727 26.4189 20.0664 30.5155L20.3419 31.1125C20.6079 31.6672 20.401 32.3198 19.9281 32.5809L19.7508 32.6788C19.2483 32.9398 18.6571 32.744 18.4207 32.2219L18.0023 31.3154C17.8579 31.3526 17.7116 31.3867 17.5634 31.4176L17.6226 32.1893C17.6818 32.8093 17.268 33.3314 16.7359 33.3967H16.529C15.997 33.4619 15.5241 33.0051 15.465 32.4177L15.4048 31.6346C15.1955 31.6346 14.9905 31.6307 14.7896 31.623L14.7261 32.4504C14.6669 33.0377 14.194 33.4946 13.662 33.4293L13.4551 33.3967C12.9231 33.3314 12.5388 32.8093 12.5684 32.2219L12.6336 31.3727C12.4647 31.3382 12.2997 31.3006 12.1384 31.2599L11.7999 31.9935C11.5634 32.5156 10.9723 32.7114 10.4698 32.4504L10.2925 32.3525C9.81954 32.0914 9.61264 31.4388 9.87866 30.8841L10.0656 30.479C4.11496 27.3604 5.38593 19.0063 5.38593 19.0063C5.4746 19.8547 6.24309 21.5841 6.8638 21.4862C6.57347 16.4953 8.64019 15.5843 10.5017 14.7637C11.2934 14.4147 12.048 14.0821 12.5684 13.4589C16.9429 6.01899 14.7556 1.25482 14.7556 1.25482C20.0464 5.3011 20.4897 12.2516 20.4306 14.0463ZM15.1103 25.9241C15.1694 25.9241 15.199 25.9241 15.2285 25.8915C15.3468 25.8262 15.3468 25.663 15.199 25.4999L15.0807 25.4346C14.5643 25.1852 14.044 24.9315 13.5084 24.6703C12.5724 24.2138 11.5897 23.7346 10.4994 23.2157C10.4698 23.1831 10.4698 23.1831 10.4402 23.1831L10.4107 23.1504C10.3663 23.1341 10.3146 23.1096 10.2629 23.0852C10.2112 23.0607 10.1594 23.0362 10.1151 23.0199C10.1321 23.1138 10.1589 23.1969 10.1842 23.2754C10.2029 23.3333 10.2208 23.3887 10.2333 23.4441V23.4767C10.2333 23.4931 10.2407 23.5012 10.2481 23.5094C10.2555 23.5175 10.2629 23.5257 10.2629 23.542C10.2924 23.6399 10.322 23.7052 10.3516 23.7704C10.4107 23.8683 10.4402 23.9662 10.4698 24.0641L10.5585 24.2599C10.5791 24.3282 10.614 24.3964 10.6434 24.4536C10.6561 24.4784 10.6677 24.5012 10.6767 24.521L10.7654 24.7167C10.7839 24.7782 10.8141 24.8268 10.8413 24.8706C10.8575 24.8966 10.8726 24.9209 10.8836 24.9452C10.9427 25.0104 10.9723 25.0431 11.0018 25.1083C11.0314 25.1409 11.0536 25.1736 11.0757 25.2062C11.0979 25.2388 11.1201 25.2715 11.1496 25.3041L11.2678 25.4346L11.4156 25.5978C11.4362 25.6433 11.4712 25.6729 11.5005 25.6978C11.5133 25.7085 11.5249 25.7184 11.5339 25.7283C11.5634 25.7609 11.6225 25.8262 11.6816 25.8588C11.6964 25.8752 11.7186 25.8915 11.7408 25.9078C11.7629 25.9241 11.7851 25.9404 11.7999 25.9567L11.9772 26.0546C11.9955 26.0748 12.0138 26.0825 12.039 26.0931C12.0546 26.0997 12.0729 26.1074 12.0954 26.1199C12.125 26.1362 12.1546 26.1444 12.1841 26.1525C12.2137 26.1607 12.2432 26.1688 12.2728 26.1851C12.2886 26.1939 12.3023 26.2026 12.3151 26.2107C12.3499 26.2329 12.3773 26.2504 12.4206 26.2504C12.4797 26.283 12.5684 26.3157 12.6275 26.3157C12.657 26.3157 12.6792 26.3238 12.7014 26.332C12.7235 26.3401 12.7457 26.3483 12.7753 26.3483C12.8639 26.3809 12.923 26.3809 13.0117 26.3809H13.0117H13.13H13.4846H13.5142C13.5733 26.3646 13.6398 26.3565 13.7063 26.3483C13.7728 26.3401 13.8393 26.332 13.8984 26.3157C13.9132 26.3157 13.9354 26.3075 13.9576 26.2994C13.9797 26.2912 14.0019 26.283 14.0167 26.283C14.061 26.2667 14.1053 26.2586 14.1497 26.2504C14.194 26.2423 14.2384 26.2341 14.2827 26.2178C14.3122 26.2015 14.3418 26.1933 14.3714 26.1852C14.4009 26.177 14.4305 26.1688 14.46 26.1525L14.7261 26.0546C14.7852 26.0546 14.8443 26.022 14.9034 25.9894C14.9921 25.9894 15.0512 25.9567 15.1103 25.9241ZM21.6868 23.591C21.6942 23.5746 21.7016 23.5583 21.7016 23.542C21.7607 23.4115 21.7903 23.281 21.7903 23.2483C21.7199 23.2677 21.6601 23.2987 21.6044 23.3275C21.5665 23.3471 21.5306 23.3656 21.4947 23.3789L21.4651 23.4115C21.4356 23.4441 21.4356 23.4441 21.406 23.4441C20.3157 23.963 19.333 24.4422 18.397 24.8987C17.8614 25.1599 17.341 25.4136 16.8246 25.663L16.7064 25.7283C16.5882 25.7609 16.5882 25.9241 16.7064 25.9894C16.741 25.9894 16.7655 26.0006 16.7858 26.0098C16.8001 26.0164 16.8124 26.022 16.8246 26.022C16.8635 26.0363 16.8967 26.0443 16.9267 26.0516C16.9651 26.0609 16.9983 26.0689 17.0315 26.0873C17.0611 26.1036 17.0906 26.1117 17.1202 26.1199C17.1498 26.128 17.1793 26.1362 17.2089 26.1525L17.4749 26.2504C17.534 26.283 17.5931 26.3157 17.6522 26.3157C17.6966 26.332 17.7409 26.3401 17.7852 26.3483C17.8296 26.3565 17.8739 26.3646 17.9182 26.3809C17.933 26.3809 17.9552 26.3891 17.9774 26.3973C17.9995 26.4054 18.0217 26.4136 18.0365 26.4136C18.1547 26.4462 18.3025 26.4788 18.4207 26.4788H18.4503H18.805H18.9232C18.9675 26.4788 19.0045 26.4707 19.0414 26.4625C19.0784 26.4544 19.1153 26.4462 19.1597 26.4462C19.1892 26.4462 19.2114 26.438 19.2336 26.4299C19.2557 26.4217 19.2779 26.4136 19.3074 26.4136C19.337 26.3973 19.3739 26.3891 19.4109 26.3809C19.4478 26.3728 19.4848 26.3646 19.5143 26.3483C19.5439 26.332 19.5661 26.3238 19.5882 26.3157C19.6104 26.3075 19.6326 26.2994 19.6621 26.283C19.7212 26.283 19.7804 26.2504 19.8395 26.2178C19.869 26.2178 19.9281 26.1852 19.9577 26.1525L20.135 26.0546C20.1498 26.0383 20.172 26.022 20.1942 26.0057C20.2163 25.9894 20.2385 25.973 20.2533 25.9567C20.2828 25.9404 20.305 25.9159 20.3272 25.8915C20.3493 25.867 20.3715 25.8425 20.4011 25.8262C20.4217 25.7807 20.4567 25.7511 20.486 25.7262C20.4987 25.7154 20.5103 25.7056 20.5193 25.6957L20.6671 25.5325L20.7853 25.402C20.8444 25.3367 20.9035 25.2715 20.9331 25.2062C20.9922 25.1409 21.0218 25.1083 21.0513 25.0431C21.0699 24.9816 21.1001 24.933 21.1273 24.8892C21.1435 24.8632 21.1586 24.8389 21.1696 24.8146L21.2582 24.6188C21.273 24.5699 21.2952 24.5291 21.3173 24.4883C21.3395 24.4475 21.3617 24.4067 21.3765 24.3578L21.4651 24.162C21.5242 24.0641 21.5538 23.9662 21.5834 23.8683L21.5834 23.8683C21.5981 23.8357 21.6129 23.7949 21.6277 23.7541C21.6425 23.7133 21.6573 23.6725 21.672 23.6399C21.672 23.6236 21.6794 23.6073 21.6868 23.591ZM12.2728 6.83481C12.2728 6.83481 12.3319 9.47794 10.4403 11.1748C8.54858 12.8716 9.49442 14.3726 9.49442 14.3726C9.49442 14.3726 8.57814 13.2632 8.63725 11.1095C8.68182 9.46122 10.7256 7.9984 11.7288 7.28039L11.7288 7.28039C12.0562 7.04603 12.2728 6.89102 12.2728 6.83481Z" fill="white"/>
<path d="M27.74 35.6324C28.1505 35.6268 28.5362 35.4475 28.8259 35.1276C29.4353 34.4549 29.4354 33.3601 28.826 32.6874C28.2167 32.0147 27.225 32.0146 26.6157 32.6874C26.3948 32.9311 26.0368 32.9311 25.816 32.6874L23.7143 30.1612C23.1512 30.4598 22.7295 30.7687 22.1967 31.2102H22.088V31.4464L24.514 34.1247C24.7348 34.3686 24.7348 34.7639 24.514 35.0076C24.2188 35.3336 24.0562 35.7668 24.0562 36.2277C24.0562 36.6886 24.2188 37.1219 24.514 37.4478C24.8092 37.7738 25.2017 37.9532 25.6192 37.9532C26.0367 37.9532 26.4291 37.7738 26.7243 37.4478C27.0141 37.1279 27.1765 36.7021 27.1815 36.249C27.1852 35.9102 27.4331 35.6365 27.74 35.6324Z" fill="white"/>
<path d="M1.66311 9.79806C1.25252 9.80362 0.866877 9.98291 0.577132 10.3028C-0.0322148 10.9756 -0.0323274 12.0703 0.577019 12.743C1.18637 13.4157 2.17802 13.4158 2.78737 12.743C3.0083 12.4993 3.36624 12.4993 3.58711 12.743L5.68872 15.2693C6.25181 14.9707 6.67356 14.6617 7.20632 14.2202L7.31506 14.2202L7.31506 13.984L4.88904 11.3057C4.66823 11.0618 4.66823 10.6666 4.88904 10.4228C5.18427 10.0968 5.34684 9.66359 5.34684 9.20269C5.34684 8.74179 5.18427 8.30854 4.88904 7.9826C4.59387 7.65667 4.20138 7.47719 3.78389 7.47719C3.36641 7.47719 2.97398 7.65667 2.67875 7.9826C2.38894 8.30254 2.2266 8.7283 2.22156 9.1814C2.21789 9.52026 1.96999 9.79394 1.66311 9.79806Z" fill="white"/>
<path d="M2.41903 35.6191C2.36605 36.0686 2.47239 36.5154 2.71834 36.8772C3.23563 37.6382 4.21728 37.7928 4.90654 37.2218C5.5958 36.6508 5.73584 35.567 5.21855 34.806C5.03119 34.5301 5.08171 34.1389 5.33144 33.9319L7.89345 31.9916C7.70518 31.334 7.48764 30.8295 7.16698 30.1849L7.18233 30.066L6.9705 30.0327L4.22632 32.3061C3.97649 32.513 3.62202 32.4572 3.43459 32.1815C3.18399 31.8128 2.81843 31.574 2.40513 31.5089C1.99182 31.4438 1.58037 31.5604 1.24642 31.837C0.912481 32.1136 0.696136 32.5173 0.637206 32.9736C0.578275 33.4299 0.683822 33.8841 0.934423 34.2528C1.18042 34.6147 1.53929 34.8522 1.94488 34.9217C2.24823 34.9735 2.45865 35.2831 2.41903 35.6191Z" fill="white"/>
<path d="M32.2955 9.93594C32.3484 9.48641 32.2421 9.03961 31.9961 8.67778C31.4789 7.91683 30.4972 7.76218 29.8079 8.33321C29.1187 8.90423 28.9786 9.98805 29.4959 10.749C29.6833 11.0249 29.6328 11.4161 29.383 11.6231L26.821 13.5634C27.0093 14.221 27.2268 14.7256 27.5475 15.3702L27.5321 15.489L27.744 15.5223L30.4882 13.2489C30.738 13.042 31.0925 13.0978 31.2799 13.3735C31.5305 13.7422 31.896 13.981 32.3094 14.0461C32.7227 14.1112 33.1341 13.9946 33.4681 13.718C33.802 13.4414 34.0183 13.0377 34.0773 12.5815C34.1362 12.1252 34.0307 11.6709 33.7801 11.3022C33.5341 10.9403 33.1752 10.7028 32.7696 10.6334C32.4663 10.5815 32.2558 10.2719 32.2955 9.93594Z" fill="white"/>
</svg>
