<svg width="29" height="32" viewBox="0 0 29 32" fill="none" xmlns="http://www.w3.org/2000/svg">
<path d="M7.8226 23.0341C7.59079 22.5007 7.39575 21.947 7.23734 21.3803L2.65844 26.4354L1.41751 31.1421L5.6808 29.7721L9.38981 25.6773C8.76617 24.8755 8.23561 23.9843 7.8226 23.0341Z" fill="white"/>
<path d="M28.0795 1.70733C27.5837 1.15994 26.9244 0.858467 26.2232 0.858467C25.522 0.858467 24.8627 1.15994 24.3668 1.70733C23.9626 2.15365 23.7056 2.73034 23.6257 3.34575L26.5959 6.62479C27.1532 6.53595 27.6768 6.25059 28.0795 5.80598C29.103 4.67592 29.103 2.83726 28.0795 1.70733Z" fill="white"/>
<path d="M21.314 3.43941L20.1407 4.73478L21.2277 5.93488L19.7585 7.55694H22.6377V11.0517L24.2501 9.27157L25.3372 10.4717L26.5105 9.17637L21.314 3.43941Z" fill="white"/>
<path d="M21.5561 23.0306C21.1435 23.977 20.6144 24.8644 19.9927 25.6632L23.7146 29.7721L27.9779 31.1421L26.7369 26.4354L22.1461 21.3671C21.9866 21.9372 21.79 22.4943 21.5561 23.0306Z" fill="white"/>
<path d="M6.74669 7.55694H9.63686L8.16761 5.93488L9.25466 4.73478L8.08132 3.43941L2.88486 9.17637L4.05819 10.4717L5.14524 9.27163L6.74669 11.0396V7.55694Z" fill="white"/>
<path d="M5.76827 3.33585C5.6869 2.7241 5.43053 2.1512 5.02847 1.70726C4.53259 1.15987 3.87333 0.858398 3.17214 0.858398C2.47089 0.858398 1.81163 1.15987 1.31581 1.70726C0.292313 2.83726 0.292313 4.67591 1.31581 5.80591C1.71643 6.2482 2.23653 6.53276 2.7906 6.6232L5.76827 3.33585Z" fill="white"/>
<path d="M20.9783 9.38888H8.40604V17.8135C8.40604 20.9348 9.67097 23.8449 11.8765 25.7977L14.6758 28.2762L17.4903 25.7966C19.707 23.8437 20.9784 20.9279 20.9784 17.7969V9.38888H20.9783ZM16.2133 24.0298L14.679 25.3816L13.1574 24.0344C11.439 22.5128 10.4533 20.2454 10.4533 17.8135V11.6492H18.931V17.7969C18.931 20.2364 17.9404 22.5082 16.2133 24.0298Z" fill="white"/>
<path d="M12.1127 17.8135C12.1127 19.6867 12.8719 21.4333 14.1956 22.6053L14.6815 23.0356L15.1782 22.598C16.5085 21.4259 17.2716 19.676 17.2716 17.7969V13.4811H12.1126V17.8135H12.1127Z" fill="white"/>
</svg>
