<svg width="208" height="500" viewBox="0 0 208 500" fill="none" xmlns="http://www.w3.org/2000/svg">
<path fill-rule="evenodd" clip-rule="evenodd" d="M281.484 180.982C312.296 164.48 297.107 107.589 293.635 96.2981C397.531 156.978 389.283 345.644 276.136 400.163L280.181 408.109C284.087 415.492 281.049 424.177 274.106 427.651L271.502 428.954C264.124 432.428 255.445 429.823 251.973 422.874L245.831 410.809C243.71 411.304 241.562 411.758 239.387 412.17L240.256 422.44C241.124 430.691 235.049 437.64 227.237 438.508H224.2C216.388 439.377 209.445 433.297 208.577 425.48L207.694 415.057C204.621 415.057 201.61 415.005 198.661 414.904L197.728 425.914C196.86 433.731 189.917 439.811 182.105 438.942L179.067 438.508C171.256 437.64 165.614 430.691 166.048 422.874L167.005 411.572C164.527 411.113 162.104 410.612 159.736 410.07L154.765 419.834C151.293 426.783 142.614 429.388 135.237 425.914L132.633 424.611C125.689 421.137 122.651 412.452 126.557 405.069L129.302 399.678C41.9331 358.173 60.5938 246.992 60.5938 246.992C61.8957 258.283 73.1789 281.3 82.2922 279.997C78.0295 213.574 108.374 201.45 135.705 190.53C147.329 185.885 158.408 181.459 166.048 173.165C230.276 74.15 198.162 10.7456 198.162 10.7456C275.842 64.5959 282.352 157.097 281.484 180.982ZM203.369 339.059C204.237 339.059 204.671 339.059 205.105 338.624C206.841 337.756 206.841 335.585 204.671 333.413L202.935 332.545C195.354 329.225 187.715 325.849 179.852 322.373C166.109 316.298 151.68 309.919 135.67 303.014C135.236 302.58 135.236 302.58 134.802 302.58L134.368 302.145C133.718 301.928 132.958 301.602 132.199 301.277C131.439 300.951 130.68 300.625 130.029 300.408C130.279 301.658 130.672 302.764 131.044 303.809C131.318 304.579 131.58 305.316 131.765 306.054V306.488C131.765 306.705 131.873 306.814 131.982 306.922C132.09 307.031 132.199 307.139 132.199 307.357C132.633 308.659 133.066 309.528 133.5 310.396L133.501 310.397C134.368 311.699 134.802 313.002 135.236 314.305L136.538 316.911C136.841 317.819 137.354 318.727 137.785 319.489C137.972 319.819 138.143 320.122 138.274 320.385L139.576 322.991C139.848 323.808 140.292 324.455 140.692 325.038C140.929 325.384 141.15 325.707 141.312 326.03C142.18 326.899 142.614 327.333 143.048 328.202C143.482 328.636 143.807 329.07 144.133 329.505C144.458 329.939 144.784 330.373 145.218 330.808L146.954 332.545L149.123 334.716C149.426 335.322 149.939 335.716 150.37 336.047C150.557 336.19 150.728 336.322 150.859 336.453C151.293 336.887 152.161 337.756 153.029 338.19C153.246 338.407 153.572 338.624 153.897 338.842C154.223 339.059 154.548 339.276 154.765 339.493L157.369 340.796C157.637 341.064 157.905 341.167 158.276 341.308C158.505 341.396 158.773 341.499 159.105 341.664C159.539 341.882 159.973 341.99 160.407 342.099C160.841 342.207 161.275 342.316 161.708 342.533C161.941 342.649 162.142 342.766 162.329 342.874C162.84 343.169 163.243 343.402 163.878 343.402C164.746 343.836 166.048 344.27 166.916 344.27C167.35 344.27 167.676 344.379 168.001 344.487C168.326 344.596 168.652 344.704 169.086 344.704C170.388 345.139 171.256 345.139 172.558 345.139H174.294H179.501H179.935C180.803 344.922 181.78 344.813 182.756 344.704C183.732 344.596 184.709 344.487 185.577 344.27C185.794 344.27 186.119 344.162 186.445 344.053C186.77 343.944 187.096 343.836 187.313 343.836C187.964 343.619 188.615 343.51 189.265 343.402C189.916 343.293 190.567 343.184 191.218 342.967C191.652 342.75 192.086 342.642 192.52 342.533C192.954 342.424 193.388 342.316 193.822 342.099L197.728 340.796C198.596 340.796 199.464 340.362 200.332 339.927C201.634 339.927 202.502 339.493 203.369 339.059ZM299.928 308.008C300.036 307.791 300.144 307.574 300.144 307.357C301.012 305.619 301.446 303.882 301.446 303.448C300.414 303.706 299.535 304.118 298.718 304.501C298.162 304.762 297.634 305.009 297.107 305.185L296.673 305.619C296.423 305.869 296.317 305.975 296.189 306.02C296.095 306.054 295.989 306.054 295.805 306.054C279.796 312.959 265.367 319.337 251.624 325.412C243.76 328.888 236.121 332.265 228.54 335.585L226.804 336.453C225.068 336.887 225.068 339.059 226.804 339.927C227.312 339.927 227.672 340.076 227.97 340.2C228.18 340.287 228.36 340.362 228.54 340.362C229.11 340.552 229.598 340.659 230.038 340.756C230.603 340.879 231.09 340.986 231.577 341.23C232.011 341.447 232.445 341.556 232.879 341.664C233.313 341.773 233.747 341.882 234.181 342.099L238.087 343.402C238.955 343.836 239.823 344.27 240.691 344.27C241.342 344.487 241.993 344.596 242.644 344.704C243.295 344.813 243.946 344.922 244.596 345.139C244.813 345.139 245.139 345.247 245.464 345.356C245.79 345.464 246.115 345.573 246.332 345.573C248.068 346.007 250.238 346.442 251.974 346.442H252.408H257.616H259.351C260.002 346.442 260.545 346.333 261.087 346.224C261.63 346.116 262.172 346.007 262.823 346.007C263.257 346.007 263.583 345.899 263.908 345.79C264.234 345.681 264.559 345.573 264.993 345.573C265.427 345.356 265.969 345.247 266.512 345.139C267.054 345.03 267.597 344.922 268.031 344.704C268.465 344.487 268.79 344.379 269.116 344.27C269.441 344.162 269.767 344.053 270.201 343.836C271.069 343.836 271.937 343.402 272.804 342.967C273.238 342.967 274.106 342.533 274.54 342.099L277.144 340.796C277.361 340.579 277.687 340.362 278.012 340.144C278.338 339.927 278.663 339.71 278.88 339.493C279.314 339.276 279.639 338.95 279.965 338.625C280.29 338.299 280.616 337.973 281.05 337.756C281.352 337.15 281.866 336.756 282.296 336.425C282.483 336.282 282.654 336.15 282.786 336.019L284.956 333.847L286.691 332.11C287.559 331.242 288.427 330.373 288.861 329.505C289.729 328.636 290.163 328.202 290.597 327.333C290.87 326.515 291.313 325.869 291.713 325.286C291.95 324.94 292.171 324.617 292.333 324.293L293.635 321.688C293.852 321.036 294.177 320.493 294.503 319.951C294.828 319.408 295.154 318.865 295.371 318.214L296.673 315.608C297.541 314.305 297.975 313.002 298.409 311.699C298.626 311.265 298.843 310.722 299.06 310.179C299.277 309.636 299.494 309.094 299.711 308.659C299.711 308.442 299.819 308.225 299.928 308.008ZM161.709 85.0074C161.709 85.0074 162.577 120.184 134.803 142.766C107.029 165.349 120.916 185.325 120.916 185.325C120.916 185.325 107.463 170.56 108.331 141.898C108.985 119.961 138.992 100.493 153.721 90.9375L153.721 90.9374C158.529 87.8184 161.709 85.7554 161.709 85.0074Z" fill="#3A3B47"/>
</svg>
